PathFileType	3	(X/Y/Z)	results
DataRate	CameraRate	NumFrames	NumMarkers	Units	OrigDataRate	OrigDataStartFrame	OrigNumFrames
30.0	30.0	4	85	mm	30.0	231	369
Frame#	Time	head			nose			neck			shoulder_r			elbow_r			wrist_r			shoulder_l			elbow_l			wrist_l			hip_r			knee_r			ankle_r			hip_l			knee_l			ankle_l			heel_r			heel_l			mtoe_r			ltoe_r			mtoe_l			ltoe_l			asis_l			asis_r			psi_r			psi_l			mhnd_r			lhnd_r			mhnd_l			lhnd_l			l_lat_knee			r_med_wrist			l_lat_ankle			r_med_ankle			r_lat_knee			xiphoid			l_med_ankle			r_med_knee			l_med_elbow			navel			r_lat_elbow			r_lat_wrist			l_med_wrist			l_lat_elbow			l_med_knee			r_med_elbow			r_lat_ankle			l_lat_wrist			chin			T10			r_eye			l_eye			l_ear			r_ear			spinal_cord_8			spinal_cord_12			spinal_cord_27			spinal_cord_33			up_arm_r_0			up_arm_r_5			up_arm_l_0			up_arm_l_5			front_torso_11			front_torso_7			front_torso_4			front_torso_1			front_torso_10			thigh_r_2			thigh_r_3			thigh_l_1			thigh_l_5			shank_l_0			shank_l_4			shank_r_1			shank_r_2			foot_r_1			foot_r_3			foot_r_5			foot_r_6			foot_r_7			foot_l_1			foot_l_7			foot_l_0			foot_l_4			foot_l_5			foot_l_6			
		X1	Y1	Z1	X2	Y2	Z2	X3	Y3	Z3	X4	Y4	Z4	X5	Y5	Z5	X6	Y6	Z6	X7	Y7	Z7	X8	Y8	Z8	X9	Y9	Z9	X10	Y10	Z10	X11	Y11	Z11	X12	Y12	Z12	X13	Y13	Z13	X14	Y14	Z14	X15	Y15	Z15	X16	Y16	Z16	X17	Y17	Z17	X18	Y18	Z18	X19	Y19	Z19	X20	Y20	Z20	X21	Y21	Z21	X22	Y22	Z22	X23	Y23	Z23	X24	Y24	Z24	X25	Y25	Z25	X26	Y26	Z26	X27	Y27	Z27	X28	Y28	Z28	X29	Y29	Z29	X30	Y30	Z30	X31	Y31	Z31	X32	Y32	Z32	X33	Y33	Z33	X34	Y34	Z34	X35	Y35	Z35	X36	Y36	Z36	X37	Y37	Z37	X38	Y38	Z38	X39	Y39	Z39	X40	Y40	Z40	X41	Y41	Z41	X42	Y42	Z42	X43	Y43	Z43	X44	Y44	Z44	X45	Y45	Z45	X46	Y46	Z46	X47	Y47	Z47	X48	Y48	Z48	X49	Y49	Z49	X50	Y50	Z50	X51	Y51	Z51	X52	Y52	Z52	X53	Y53	Z53	X54	Y54	Z54	X55	Y55	Z55	X56	Y56	Z56	X57	Y57	Z57	X58	Y58	Z58	X59	Y59	Z59	X60	Y60	Z60	X61	Y61	Z61	X62	Y62	Z62	X63	Y63	Z63	X64	Y64	Z64	X65	Y65	Z65	X66	Y66	Z66	X67	Y67	Z67	X68	Y68	Z68	X69	Y69	Z69	X70	Y70	Z70	X71	Y71	Z71	X72	Y72	Z72	X73	Y73	Z73	X74	Y74	Z74	X75	Y75	Z75	X76	Y76	Z76	X77	Y77	Z77	X78	Y78	Z78	X79	Y79	Z79	X80	Y80	Z80	X81	Y81	Z81	X82	Y82	Z82	X83	Y83	Z83	X84	Y84	Z84	X85	Y85	Z85	
231	7.7	75.24177002953456	1692.1150904004292	-248.17917250076454	33.61422609312197	1516.4886717882334	-364.55855405418674	56.62356635714125	1361.8073508829607	-228.72406680477664	237.7794344748043	1328.3246998357167	-252.54928253913832	260.0723807287767	1070.171520273128	-295.1453884928148	159.6557600690693	899.1944350333472	-412.8560327589461	-97.52271248277802	1325.6880070298957	-234.5663190867936	-138.13533757673173	1085.8100607524411	-271.22949000517195	-47.04718874982773	908.5129428491408	-358.4652070285908	148.0468148818156	877.5429908711144	-271.46831592517486	154.0365893771848	486.7828233942279	-183.477637449793	208.68655734818796	112.69336245659134	-160.3813439429273	-40.3972460507542	869.2427021961927	-260.0992319162671	-45.81716877260605	481.03076315582103	-183.23346691563393	-97.34175942051242	105.24369898184437	-157.03453769662312	209.62728239154583	58.030098143359396	-141.95343367051416	-105.63926369449676	43.763876533899925	-131.13930713889837	242.64759998451015	38.186637434525416	-358.0168171696761	296.8073101953606	48.60410671167796	-290.80496485834146	-128.46358687549665	43.318711534466274	-355.4307459993487	-199.37850240777934	34.49900739958714	-289.07648472110884	-86.6597850979676	934.7831467547604	-281.2121031391303	189.5546056012824	943.4569720882967	-295.5487878832226	104.74982622848603	930.8235242339323	-163.77294924388897	10.400714433221324	927.4954932333445	-163.37426028711658	151.8209048064773	830.1456989803104	-436.3629438055958	111.84778200858783	849.8489126495315	-466.0778404003393	-43.07979388957142	835.9955195380248	-381.70525640653744	6.53257850779658	849.4143808876998	-396.3440401295972	-95.86300704905973	477.44713988861866	-170.31834056357746	186.09920146817362	890.2499353555011	-404.9565237978488	-148.72295346274478	98.44352015526253	-142.27732108098914	177.0119432456151	97.9080340757758	-173.59600473581858	197.91911504384564	478.6628000031182	-174.11529643849875	53.489140265672646	1196.1305313645043	-325.76664543260813	-72.82083709705967	89.28728950818477	-175.06520788686336	114.55634448815387	475.93593161325873	-199.7508064593998	-141.1683893327082	1089.5840400080833	-237.74572458642547	50.11406325072422	979.9402718326018	-344.4023561267163	272.8360974711234	1083.8020520899315	-330.687182293707	135.67605380780262	919.805297498216	-407.988686192726	-77.0716479301005	905.8334521975471	-361.23621592233525	-143.46624726688847	1102.3212860609476	-304.410523712748	-11.374349470541466	471.52887284193497	-219.542136107152	248.03215074060324	1069.51205238207	-260.15519266746696	256.81175247789963	101.6581453299496	-161.41871462652242	-25.89704285176514	928.5232727183733	-359.5637184383682	36.1602513876055	1440.0984530162614	-344.82492054476916	62.344288605985575	1203.5719378703573	-132.51580483267605	67.08257454838714	1546.9257738978554	-373.283017606064	-0.09720670667578979	1549.4635736845073	-354.81783712383066	-23.99968850694395	1546.4537708634055	-241.5663240662637	143.19447962853633	1537.0209695134301	-284.826355798709	58.772059084926234	1419.384838459283	-179.35557429782202	60.27104792131187	1302.5181644919912	-130.58463817260446	72.39209478986395	1054.0615195712487	-151.57103030789514	61.64464401721393	1194.2948612107782	-145.54375535039853	212.28408898143704	1202.3862363637568	-302.1902012158379	290.3728321837901	1176.1627386022567	-269.2924625358322	-113.32809963582073	1282.5443491788287	-267.7778890470115	-142.81411060694148	1149.9231446769718	-225.40121786370136	95.85104278799028	1006.7767677505286	-306.8983390830506	52.991296307583596	1110.7703010651878	-357.66815287235374	-5.5246280726633925	1240.872911927366	-327.93852750603844	-11.365437493446983	1039.8979886524296	-305.5417962930689	125.61455320324566	1281.9701505414491	-341.0172237935183	134.4722822441871	662.7952657197403	-231.28235429030101	230.00191714117724	634.1332444256669	-196.48234700339125	-0.28995415299607613	587.2377209522064	-223.10457178767297	-144.76271545779787	767.447395736667	-224.3344311693692	-150.87677878218508	205.3920428891806	-159.75952198859167	-20.705768587327047	328.6807839236402	-186.86881275852872	233.82851787249626	334.8324073614468	-170.65338517040647	144.0226557362331	285.5453821537431	-177.40251010872163	263.1317251220125	36.263494576956234	-336.8051783781153	283.1895934883738	43.08091759534274	-317.4635272097952	216.7110284286419	50.67210095338286	-281.2567036999125	248.5441129304666	64.23895410173083	-263.75665728217376	278.36521663554595	57.40752544559434	-246.76360324445616	-173.939038292979	33.58790712518478	-322.9139149209892	-174.98393910536737	64.16600385823374	-216.81096961659307	-187.44391733950187	34.39853325651257	-313.0261972841927	-157.25796606181711	32.558174580063465	-334.42427987589195	-154.72422954107816	48.33829488743267	-275.93511573697174	-119.69968558351229	58.3223769179238	-251.0477239455291	
232	7.733333333333333	74.68972306476988	1693.485863319975	-250.23812847759447	33.71784545765898	1516.0957976022514	-364.14915344660636	56.31708171614985	1361.920442867296	-228.09891493288865	236.61686668884536	1327.6452871361057	-250.96560333158558	261.00850734132405	1069.9959579424853	-295.4216360575425	158.95728396685325	900.0164707639477	-413.1712810746286	-98.62479192155224	1324.174998140837	-230.9634642708757	-138.51715059484232	1085.3639786710391	-274.7001677175123	-44.61545223377819	908.6450227350922	-360.1066713102453	149.56547359567662	877.735970206576	-270.9337160648909	154.1374018620869	486.8805343543916	-183.28172738035738	208.47683601559316	112.7108942963494	-160.75865227258313	-38.84673984964888	868.129934394921	-260.07660481626493	-46.069502253846444	480.23694038868	-181.867430756136	-98.60638402675568	104.49246148752516	-157.1076334420913	209.43005104898333	58.087969519813726	-142.31265287017422	-107.08050254600921	42.91806008496459	-131.45792493514065	242.93522947383536	38.25697412397922	-358.30252447594756	296.88179696517324	49.528858216741526	-291.05712721869105	-128.65771397916848	43.36700371162698	-355.8727636669576	-199.87982963133314	33.77427427881045	-289.9562240140225	-85.5261579725718	933.15382436738	-281.8585096883758	190.66008237633798	943.7604670925286	-295.4167240531602	105.53910308566519	931.5570625171765	-163.8043307931619	11.21638137851575	927.5327185982128	-163.66844275826898	150.8215212993083	831.179564950236	-437.1916378220708	110.38894460780404	851.1186217554152	-466.11711120716683	-40.148263875359255	836.538200015959	-384.50476849572453	10.363220399836989	849.6200869097813	-396.0460645807094	-96.10203870201036	476.9392941325787	-168.79388211597345	185.52391788541416	891.0238277752649	-405.75452682114434	-149.97022949948146	97.7775204497523	-142.25132432330454	176.66588888023657	97.97221928239286	-173.69501478030367	198.02779358232175	478.543633352662	-174.14970327281281	53.396863060369306	1196.5255254972203	-325.62782782830215	-74.17595464417248	88.54151041445051	-175.26552380523935	114.5233828871117	476.23533350154526	-199.3618401558948	-143.4678593999093	1088.5041846564359	-241.3799867802664	50.47529922142352	980.384459698469	-344.8999142363054	273.18896046639657	1083.9707036610287	-331.034358686441	135.03794229631387	920.559900296807	-407.7530134922268	-74.46214363643126	906.3887239057136	-364.6244625201614	-141.80853704582637	1102.5598392118661	-307.7983445964114	-11.80226545651455	470.4067470606262	-218.26321859305096	249.4123275719892	1069.0021102499977	-260.28964605576425	256.57573522508983	101.60999985404423	-162.22582596905318	-23.213772307842994	928.4104813002785	-359.6132705016062	36.52807650372893	1439.9997971594787	-343.3437364021154	62.54669667459572	1203.4136366042067	-132.3702017285685	67.08096153259984	1546.5256082266985	-373.2920692043364	-0.11284192529809056	1549.0847522537044	-354.88093436188007	-24.038098704448494	1547.5814781109584	-241.60421559775887	143.201187709916	1538.1337434880338	-284.68622269381365	58.41633147890306	1419.355944339486	-178.56319579928015	60.25527460698126	1302.348805816795	-130.14193512648967	72.89815461709507	1053.9832807645419	-151.8853568417241	61.84681323426762	1194.1736906909862	-145.42450030341507	211.79063803937328	1201.7528812359185	-301.0604188146047	290.54634230982447	1176.1351702692446	-269.2947645678939	-112.73905400024937	1281.806248695391	-265.89010927798773	-145.45594763807057	1148.6006323131978	-227.94989812909873	96.21250892604621	1007.2120632889687	-307.3898164120775	53.038536485353134	1111.2593740366417	-357.7818005137168	-5.720250093419706	1241.1417674030108	-327.57216170644944	-11.075456508667585	1040.0887231802947	-305.7629072003666	125.30544373594097	1282.5714357319048	-340.7391781753104	135.17051406373173	663.0229856758439	-230.84775442594662	230.73829593180605	633.8772856173757	-196.55795488875023	-0.11655650043942284	586.0424687157192	-222.2527526559535	-143.63604769530434	767.0111230659797	-223.63838928837342	-151.8606200818574	204.80384086250558	-159.28206093099615	-21.404070673434124	327.83235719156374	-186.20030926515	233.83143705715077	334.8177907593541	-171.20178546247948	143.9016409336387	285.65552087021393	-177.16478838267255	263.42121925396884	36.64915289675981	-337.06645574954024	283.36645616169517	43.771706975156604	-317.71828896232586	216.75524078445244	50.548198401745154	-281.5937142829729	248.3866103875586	64.57283809843646	-264.08879108171743	278.2785092441108	58.1732265872873	-247.05206943529177	-174.24773967025035	33.18730244849155	-323.65517873056183	-176.08188035070782	63.263874848506845	-217.41967364670566	-187.81226215260318	33.86342425897981	-313.8392517761603	-157.49670547686028	32.32043878310987	-335.07701843037796	-155.39107499174	47.844500967920844	-276.50241512072347	-120.57145111910575	57.941908185708584	-251.37436297866023	
233	7.766666666666667	74.87160100687697	1693.5755242142884	-249.97995995828435	33.535159813939956	1516.584818416006	-364.37943753580623	56.95304856064225	1361.8976060621276	-227.29230545720705	236.49559595169436	1327.5216584526152	-250.45330005799792	260.581289315386	1069.951844100282	-295.53254054703547	158.3982559179857	900.2443589770129	-413.5598862521549	-99.6726372976876	1323.152445871449	-230.10909048408485	-138.2785284311485	1084.5050868788742	-275.8477584222984	-42.74017519762044	909.5108360485991	-362.97309593037033	150.0214582992977	877.5780125530483	-271.17295030759885	154.13380301121396	486.7435281071907	-183.40484805775696	208.39780077677713	112.57610951032842	-160.66404849710432	-38.40363253026151	868.1858751760714	-260.3522356634048	-46.03959656155941	480.33160950623943	-181.9994878094699	-98.69894502246385	104.59031232811466	-157.4524808895488	209.3006958705479	58.01808686339328	-142.16144472477995	-107.22131307511793	43.03679173161183	-131.815540213364	243.34493464755485	37.54239799781147	-358.0068198606007	297.12190505018486	49.03527277886613	-290.66305807848744	-128.35794106409998	43.324588673124914	-356.27256856581806	-199.70299918497383	33.72743610248401	-290.48976108526523	-85.00349876691448	933.2765051847715	-282.10512225574905	191.19717211665932	943.5682759833486	-295.6119450508928	106.0402793030583	931.39004522645	-164.02045383576188	11.712901785272498	927.4757713180584	-163.90234300777823	150.2267234347591	831.4597396110975	-437.71749312917206	109.77780403477627	851.4694469476065	-466.5712413506316	-37.589042439141146	837.6758177966476	-388.0292884742604	12.773719469006892	851.3644158753096	-399.5167520468463	-96.09447431615457	477.075815575295	-168.99847387865393	184.96806694436924	891.2294246868119	-406.18167433415346	-150.08674877863373	97.88176166555546	-142.67635322885857	176.61113403005666	97.83621891574812	-173.65857873637697	198.00677644615976	478.3679108372778	-174.22467892567943	53.81014508781319	1196.7578544639007	-325.24576287066066	-74.24465505694708	88.64025165831247	-175.57900756470556	114.5265612870903	476.1310385381414	-199.52323183451315	-143.1633748259108	1087.3232098919752	-242.4890814794594	50.786711123317836	980.6685688131402	-345.0747479281254	272.7416434021944	1083.9970719611606	-331.1243982126917	134.4882942715134	920.7826357959461	-408.0810226937916	-72.56913421886725	906.9981184769267	-367.4726251971763	-141.75393320620995	1101.9715795434481	-308.78502231692164	-11.72784101184577	470.4584902159481	-218.342403413668	249.01799667603544	1068.8879966831835	-260.3917617854099	256.4985714378906	101.4708188965826	-162.03333423475996	-21.53566915189649	929.4833618433443	-362.32824165431845	36.31947052912382	1440.4204252126908	-343.8222762014671	63.30002353803944	1203.1403992408545	-131.98717727958064	66.90702616207949	1547.0154051490244	-373.48777025638697	-0.24996367604583625	1549.5726468065852	-354.9425401833075	-23.964253562136758	1547.727964700306	-241.6265114751519	143.18591803271258	1538.2762280798772	-285.05211171263846	59.15701950020604	1419.2034064339732	-177.6111329181872	61.04370921990404	1302.0701452300439	-129.49761939160553	73.57020878202862	1053.758100408468	-151.90895675834233	62.57440274939166	1193.9346592166057	-145.06421722245605	211.49254185966467	1201.7716100253583	-300.8170036269846	290.25265787235054	1175.9997798970078	-269.187242996653	-113.62710307507787	1281.0102177264469	-265.37237658864683	-145.46883781339665	1147.2865961167793	-228.52555936463426	96.59789285022029	1007.3842903953228	-307.57506854436537	53.36870541897353	1111.5757452911907	-357.6206968504302	-5.296200362088436	1241.3973799585092	-326.9706497761424	-10.676688148566344	1040.2899607093827	-305.6750003796535	125.71933447838823	1282.8204208944035	-340.2590467481573	135.3824561709705	662.8901520281921	-231.04083017314343	230.8869358614866	633.6642755835294	-196.64307413487498	0.053141579001388106	586.0835519643961	-222.360592483517	-143.32410082768533	767.1625638651309	-224.02672812078777	-151.92712509368542	204.91453295758578	-159.6719912461489	-21.402121282568686	327.92297926527345	-186.3490361375442	233.79131370805936	334.6778101928862	-171.1231276224679	143.8693410922235	285.5211812173098	-177.24840997756792	263.7789456668961	36.005477259283985	-336.7154941708262	283.67417750692454	43.1929924935137	-317.3398861875884	216.97192736334546	50.058058120036314	-281.40048656017206	248.5556803248638	64.14571875310017	-263.86022531281407	278.4074102150979	57.807254155003506	-246.7304670453736	-174.00437584015933	33.13553429897872	-324.1379190010615	-176.06723268902124	63.280337830244086	-217.9259504595002	-187.5886017008705	33.8090221283372	-314.34909605037376	-157.23036345216073	32.272381124698605	-335.5262681481407	-155.25014044543195	47.836144169565664	-276.9578266794795	-120.48667813596884	57.97321560584519	-251.76806061144896	
234	7.8	75.43176811207456	1693.496817129347	-249.3607781604775	33.30558093513741	1517.1524725620086	-364.46815530256544	58.20523289762597	1361.9777325951088	-226.6597999499998	235.39610004762423	1327.602417749745	-249.43253001555516	259.5579412592066	1070.2000162900767	-295.41814695646	158.53706253166015	900.2845184816257	-414.14456701945716	-99.05596865900071	1323.6334324359616	-230.112245740105	-138.36952689636217	1085.0926694702898	-275.8041604688014	-43.95765263331589	909.6323476818127	-363.2196206239815	150.22970693227586	877.4321012062783	-271.5508734851144	154.0021166513876	486.6698519876926	-183.4465098351174	208.2846539638759	112.52281374759116	-160.41647560420887	-38.21661894821606	868.5174179944139	-260.6961210963092	-45.81434401810388	480.6165359884846	-182.54953163519875	-97.70446875337582	104.77750692418431	-157.86098933080996	209.19972232606503	58.09687539094973	-141.78934980758882	-106.09524122908503	43.22764316369921	-132.1919042822421	242.9634834321665	36.26771124732762	-357.54612496125594	296.83023551418165	48.1528733103915	-290.3423534134194	-127.28536400270762	43.29798616639634	-356.6440622031214	-198.59596679628217	33.61277314674967	-290.83680581190254	-84.65257670682794	933.7505952297535	-282.3723785713909	191.57075027380804	943.3401255937731	-295.9326124879701	106.41264432514403	931.2494550911998	-164.3338323405401	12.075466996323017	927.5795598592165	-164.19788235953934	150.7600536558611	831.5163807939826	-438.4786818869001	110.312181216864	851.4032853328289	-467.4186697543452	-39.236132812994875	837.7735974707891	-388.29239608754426	11.158682389319399	851.214139523369	-399.9311998819588	-95.86871715575838	477.3520216750799	-169.55507637046114	185.12430839068966	891.3756745970213	-406.7005917634144	-149.07784671829504	97.96940290639306	-143.08023388068992	176.4787671780408	97.77141824266056	-173.3507815450157	197.8763431821038	478.2524382666794	-174.31066501650483	54.52197558119942	1197.0715864712674	-324.9872722328574	-73.21836543490524	88.87074728568255	-175.98261852007516	114.36390808822938	476.0882879050041	-199.50900499896622	-143.16995979989613	1087.9169219945659	-242.43374976392874	51.00105511396628	981.0355491612868	-345.308268194346	271.7846181377115	1084.376182237588	-330.93529296807185	134.51528134113354	920.700489485304	-408.69780808138296	-73.81204552416081	907.2668360627554	-367.6293699828712	-141.8771562177996	1102.5739731486115	-308.730148919657	-11.494226361667526	470.77164327224943	-218.89051105269579	247.92953011344807	1069.0067872630668	-260.3030206050152	256.3829854757933	101.41430064701368	-161.8440622755271	-22.65310813397467	929.5000884184452	-362.6382756319294	35.92807469614738	1440.8865142130965	-344.26938841175337	64.3992164804673	1202.9878316347044	-131.7332587405663	66.73956539964304	1547.531156167098	-373.52177682501275	-0.36239447406563596	1550.1909212061514	-354.79268291951615	-23.792378965444865	1547.88973345584	-241.42587507553614	143.21911788553365	1538.170255713444	-285.32336495054176	60.627060279489115	1419.163886961579	-176.85106929041723	62.35793101711598	1301.916128447163	-129.0113590898553	74.31341836561208	1053.630481060919	-152.0191069494685	63.628742259829785	1193.8138643533516	-144.83004622401157	210.48282173559218	1202.0401352175018	-300.30660789035784	289.18346591225975	1176.1488709656278	-268.6263947969208	-113.19833638137003	1281.5330636361275	-265.35066564187144	-145.2918171111256	1147.8833435404915	-228.454164451409	96.94135221201259	1007.5674357531144	-307.8360357924939	53.8369184843085	1111.965570847888	-357.55750010701007	-4.492613413648303	1241.8401984588822	-326.49465743087336	-10.259193186870657	1040.6960134339593	-305.65210966288083	126.58469018771062	1283.0159191967543	-339.94161568591187	135.39448367536818	662.7960609088847	-231.21414998266522	230.90619756718195	633.4917755209437	-196.90329918100852	0.2720482825590495	586.4003452562895	-222.84656426543287	-143.12887995153605	767.4612696169612	-224.43830868998575	-151.13771624844279	204.99187678810847	-160.1154869989778	-20.865536644277476	328.25698610087284	-186.84358559115665	233.67147575976833	334.61314511272155	-171.13012458373402	143.7389276808565	285.4540479686715	-177.07776103121253	263.42351636914975	34.853322161446144	-336.2713032920991	283.3463471151688	42.15157471901895	-316.96557526640055	216.69243001586128	49.27027048328128	-280.9858691560568	248.30461612463554	63.451730829961555	-263.57287774929614	278.17494075694316	57.20571997983324	-246.44157353676167	-172.90417550110917	33.044792408035875	-324.49059279963575	-175.00098702838133	63.26880589529216	-218.30180238401636	-186.4873834794563	33.699361342868414	-314.699074358784	-156.13119331713324	32.20554899602472	-335.88224590365013	-154.16762646309567	47.81909723561863	-277.3264959219385	-119.41813578766246	58.04396777458039	-252.15294305653512	
